<?xml version="1.0" encoding="UTF-8"?><svg id="Layer_1" xmlns="http://www.w3.org/2000/svg" viewBox="0 0 1024 1024"><defs><style>.cls-1{fill:#fff;stroke-width:10px;}.cls-1,.cls-2{stroke:#e9882c;stroke-miterlimit:10;}.cls-3{fill:#e9882c;}.cls-2{fill:none;stroke-width:40px;}</style></defs><rect class="cls-1" width="1024" height="1024"/><rect class="cls-2" x="118.31" y="308.67" width="92.48" height="84.07" rx="6.08" ry="6.08"/><path class="cls-3" d="M282.63,389.24v85.39c0-5.47-4.47-9.94-9.92-9.94H57.16c-2.73,0-5.21,1.12-7.02,2.92-1.79,1.79-2.91,4.27-2.91,7.02v-85.39c0-16.15,13.21-29.36,29.36-29.36h176.67c16.15,0,29.36,13.21,29.36,29.36Z"/><path class="cls-3" d="M282.63,474.64v137.71c0-5.47-4.47-9.94-9.92-9.94H57.16c-2.73,0-5.21,1.12-7.02,2.92-1.79,1.79-2.91,4.29-2.91,7.02v-137.71c0,5.46,4.47,9.94,9.92,9.94h215.54c2.73,0,5.21-1.12,7.02-2.92,1.79-1.81,2.91-4.29,2.91-7.02Z"/><path class="cls-3" d="M279.72,619.34c1.79-1.79,2.91-4.27,2.91-7v72.81c0,16.15-13.21,29.36-29.36,29.36H76.6c-16.15,0-29.36-13.21-29.36-29.36v-72.81c0,5.46,4.47,9.92,9.92,9.92h215.54c2.73,0,5.21-1.12,7.02-2.92Z"/><path class="cls-3" d="M704.91,344.39h271.32v47.69l-187.59,260.72h188.12v62.53h-280.32v-46.63l188.12-261.78h-179.64v-62.53Z"/><path class="cls-3" d="M397.54,546.61v63.87c7.85,31.41,40.57,31.54,40.57,31.54h188.13c.33.01.65.05.98.08,18.03,1.96,32.06,17.22,32.06,35.78s-14.03,33.82-32.06,35.78v.86h-200.23c-90.3-9.16-95.54-94.28-95.54-94.28v-175.32c10.47-96.85,102.08-102.08,102.08-102.08h193.69v.88c17.31,1.95,30.75,16.62,30.75,34.46s-13.44,32.51-30.75,34.46c-1.28.14-2.6.22-3.93.22h-182.57c-37.95,6.54-43.19,39.26-43.19,39.26v49.08h85.2s10.13-3.91,20.51-13.64c10.38-9.71,50.6-36.95,103.77-29.17,53.19,7.79,64.86,49.3,64.86,49.3,0,0,2.59,15.87,0,28.05-2.59,12.16-15.56,48.47-66.16,52.37-50.58,3.89-77.83-5.65-102.47-26.83,0,0-13.61-12.73-20.1-12.73l-85.6-1.94Z"/></svg>